<svg xmlns="http://www.w3.org/2000/svg" viewBox="0 0 70.2 79.3"><defs><style>.cls-1{fill:#154269;}.cls-2{fill:#1abb9c;}</style></defs><title>clutch_icon</title><g id="Слой_2" data-name="Слой 2"><g id="Слой_1-2" data-name="Слой 1"><path class="cls-1" d="M54.8,56.2a22.35,22.35,0,0,1-15.1,5.6c-12.8,0-22.2-9.4-22.2-22.3s9.1-21.9,22.2-21.9a22.9,22.9,0,0,1,15.2,5.5l2.8,2.4L70.1,13.1,67,10.3A40.58,40.58,0,0,0,39.7,0C16.7,0,0,16.6,0,39.4S17.1,79.3,39.7,79.3A40.14,40.14,0,0,0,67.2,68.9l3-2.8L57.6,53.7l-2.8,2.5Z"/><circle class="cls-2" cx="39.1" cy="39.7" r="13.3"/></g></g></svg>