<svg xmlns="http://www.w3.org/2000/svg" viewBox="0 0 130 136"><defs><style>.cls-1{fill:#fcaa00;}.cls-2{fill:#17619a;}.cls-3{fill:#0e4d7d;}.cls-4{fill:#fc8e00;}.cls-5{fill:#ea8000;}.cls-6{fill:#0b416b;}</style></defs><title>Ресурс 2</title><g id="Слой_2" data-name="Слой 2"><g id="Слой_1-2" data-name="Слой 1"><path class="cls-1" d="M37,0h91V37H0A37,37,0,0,1,37,0Z"/><path class="cls-2" d="M92.5,136H46V98h84v.5A37.5,37.5,0,0,1,92.5,136Z"/><path class="cls-3" d="M46,85H93V98h37V47H53.83A7.83,7.83,0,0,0,46,54.83h0Z"/><rect class="cls-4" y="37" width="37" height="99"/><path class="cls-5" d="M0,37V93H0C0,65,16.12,41.11,43,37,45.78,36.58,0,37,0,37Z"/><path class="cls-6" d="M130,97.81V49h0c0,23-22,47-43,48.81C84.2,98.05,130,97.81,130,97.81Z"/></g></g></svg>