<?xml version="1.0" encoding="UTF-8"?>
<svg width="183px" height="36px" viewBox="0 0 183 36" version="1.1" xmlns="http://www.w3.org/2000/svg" xmlns:xlink="http://www.w3.org/1999/xlink">
    <!-- Generator: Sketch 53.2 (72643) - https://sketchapp.com -->
    <title>logotype copy</title>
    <desc>Created with Sketch.</desc>
    <g id="Badge-for-sites" stroke="none" stroke-width="1" fill="none" fill-rule="evenodd">
        <g id="logotype-copy">
            <g id="logotype" fill-rule="nonzero">
                <path d="M54.7227799,15.48 C54.3996139,14.688 53.9328185,13.932 53.3223938,13.356 C52.7119691,12.744 51.9579151,12.276 51.1679537,11.952 C50.2702703,11.592 49.3366795,11.448 48.3671815,11.448 L43.2324324,11.448 L43.2324324,24.984 L48.3671815,24.984 C49.3366795,24.984 50.2702703,24.84 51.1679537,24.48 C52.7837838,23.868 54.0764479,22.572 54.7227799,20.952 C55.369112,19.188 55.369112,17.244 54.7227799,15.48 Z M52.3528958,20.232 C52.1733591,20.772 51.8861004,21.312 51.4911197,21.744 C51.1320463,22.14 50.665251,22.464 50.1625483,22.68 C49.5880309,22.896 48.9776062,23.004 48.3671815,23.004 L45.7459459,23.004 L45.7459459,13.464 L48.3671815,13.464 C48.9776062,13.464 49.5880309,13.572 50.1625483,13.788 C50.665251,14.004 51.1320463,14.328 51.4911197,14.724 C51.8861004,15.156 52.1733591,15.66 52.3528958,16.236 C52.7478764,17.532 52.7478764,18.9 52.3528958,20.232 L52.3528958,20.232 Z M59.1034749,15.624 C58.5648649,15.876 58.0621622,16.2 57.6671815,16.632 C57.2722008,17.064 56.9490347,17.568 56.7694981,18.144 C56.5540541,18.72 56.446332,19.368 56.446332,19.98 C56.446332,20.736 56.5540541,21.492 56.8054054,22.212 C57.0208494,22.824 57.3799228,23.364 57.8108108,23.832 C58.2416988,24.264 58.7444015,24.588 59.3189189,24.804 C59.9293436,25.02 60.5397683,25.128 61.1861004,25.128 C61.5451737,25.128 61.8683398,25.092 62.2274131,25.056 C62.5864865,25.02 62.9455598,24.912 63.2687259,24.804 C63.6277992,24.696 63.9509653,24.516 64.2741313,24.3 C64.5972973,24.084 64.884556,23.832 65.1359073,23.544 L64.4895753,22.716 C64.3818533,22.572 64.2382239,22.5 64.0586873,22.5 C63.9150579,22.5 63.7355212,22.536 63.6277992,22.644 C63.4841699,22.716 63.3046332,22.824 63.0891892,22.932 C62.8737452,23.04 62.6223938,23.148 62.3710425,23.22 C62.0478764,23.328 61.7247104,23.364 61.4015444,23.364 C61.042471,23.364 60.719305,23.292 60.396139,23.184 C60.1088803,23.076 59.8216216,22.896 59.6061776,22.644 C59.3548263,22.392 59.1752896,22.068 59.0675676,21.744 C58.9239382,21.348 58.8162162,20.916 58.8162162,20.448 L64.6332046,20.448 C64.8127413,20.484 64.9563707,20.412 65.0640927,20.268 C65.1718147,20.052 65.207722,19.8 65.1718147,19.548 C65.1718147,18.9 65.0640927,18.288 64.8486486,17.712 C64.669112,17.208 64.3818533,16.74 63.9868726,16.344 C63.6277992,15.984 63.1610039,15.696 62.6583012,15.516 C62.1196911,15.336 61.5451737,15.228 60.9706564,15.228 C60.3602317,15.228 59.7138996,15.336 59.1034749,15.624 L59.1034749,15.624 Z M61.9760618,17.064 C62.2274131,17.172 62.4428571,17.316 62.6223938,17.532 C62.8019305,17.748 62.9096525,17.964 63.0173745,18.216 C63.0891892,18.504 63.1610039,18.792 63.1610039,19.08 L58.8162162,19.08 C58.8880309,18.468 59.1393822,17.892 59.5343629,17.46 C59.965251,17.064 60.5397683,16.848 61.1142857,16.884 C61.3656371,16.884 61.6888031,16.956 61.9760618,17.064 L61.9760618,17.064 Z M69.4088803,24.984 L71.4915058,24.984 L75.2976834,15.372 L73.4664093,15.372 C73.3227799,15.372 73.1791506,15.408 73.0714286,15.48 C72.9637066,15.552 72.8918919,15.66 72.8559846,15.804 L70.9528958,20.916 C70.8451737,21.204 70.7733591,21.492 70.6656371,21.78 C70.5579151,22.068 70.5220077,22.356 70.4501931,22.644 C70.3783784,22.356 70.3065637,22.068 70.234749,21.78 C70.1629344,21.492 70.0911197,21.204 69.9833977,20.916 L68.1521236,15.804 C68.1162162,15.66 68.0444015,15.552 67.9366795,15.48 C67.7930502,15.408 67.6494208,15.336 67.5057915,15.372 L65.6027027,15.372 L69.4088803,24.984 Z M74.076834,11.448 L74.076834,13.5 L78.1343629,13.5 L78.1343629,24.984 L80.6478764,24.984 L80.6478764,13.536 L84.7413127,13.536 L84.7413127,11.448 L74.076834,11.448 L74.076834,11.448 Z M86.0339768,15.588 C85.4953668,15.84 84.9926641,16.164 84.5976834,16.596 C84.2027027,17.028 83.8795367,17.532 83.7,18.108 C83.484556,18.684 83.376834,19.332 83.376834,19.944 C83.376834,20.7 83.484556,21.456 83.7359073,22.176 C83.9513514,22.788 84.3104247,23.328 84.7413127,23.796 C85.1722008,24.228 85.6749035,24.552 86.2494208,24.768 C86.8598456,24.984 87.4702703,25.092 88.1166023,25.092 C88.4756757,25.092 88.7988417,25.056 89.1579151,25.02 C89.5169884,24.984 89.8760618,24.876 90.1992278,24.768 C90.5583012,24.66 90.8814672,24.48 91.2046332,24.264 C91.5277992,24.048 91.8150579,23.796 92.0664093,23.508 L91.4200772,22.68 C91.3123552,22.536 91.1687259,22.464 90.9891892,22.464 C90.8455598,22.464 90.6660232,22.5 90.5583012,22.608 C90.4146718,22.68 90.2351351,22.788 90.0196911,22.896 C89.8042471,23.004 89.5528958,23.112 89.3015444,23.184 C88.9783784,23.292 88.6552124,23.328 88.3320463,23.328 C87.972973,23.328 87.6498069,23.256 87.3266409,23.148 C87.0393822,23.04 86.7521236,22.86 86.5366795,22.608 C86.2853282,22.356 86.1057915,22.032 85.9980695,21.708 C85.8544402,21.312 85.7467181,20.88 85.7467181,20.412 L91.6714286,20.412 C91.8509653,20.448 91.9945946,20.376 92.1023166,20.232 C92.2100386,20.016 92.2459459,19.764 92.2100386,19.512 C92.2100386,18.864 92.1023166,18.252 91.8868726,17.676 C91.7073359,17.172 91.4200772,16.704 91.0250965,16.308 C90.6660232,15.948 90.1992278,15.66 89.6965251,15.444 C89.1579151,15.264 88.5833977,15.156 88.0088803,15.156 C87.3266409,15.228 86.6444015,15.336 86.0339768,15.588 L86.0339768,15.588 Z M88.9065637,17.064 C89.1579151,17.172 89.3733591,17.316 89.5528958,17.532 C89.7324324,17.748 89.8401544,17.964 89.9478764,18.216 C90.0196911,18.504 90.0915058,18.792 90.0555985,19.08 L85.7108108,19.08 C85.7826255,18.468 86.0339768,17.892 86.4289575,17.46 C86.8598456,17.064 87.4343629,16.848 88.0088803,16.884 C88.3320463,16.884 88.619305,16.956 88.9065637,17.064 L88.9065637,17.064 Z M101.150965,24.984 L101.150965,18.936 C101.150965,18.432 101.079151,17.928 100.899614,17.424 C100.755985,16.992 100.504633,16.596 100.217375,16.236 C99.8942085,15.912 99.5351351,15.624 99.1042471,15.48 C98.6374517,15.3 98.0988417,15.192 97.596139,15.192 C96.1239382,15.156 94.6876448,15.696 93.6104247,16.704 L94.0054054,17.46 C94.0772201,17.568 94.1849421,17.676 94.2926641,17.748 C94.4003861,17.82 94.5440154,17.892 94.6876448,17.856 C94.8671815,17.856 95.0467181,17.82 95.1903475,17.712 C95.3339768,17.64 95.5135135,17.532 95.6930502,17.424 C95.9084942,17.316 96.1239382,17.208 96.3393822,17.136 C96.6266409,17.028 96.9498069,16.992 97.272973,16.992 C97.703861,16.956 98.134749,17.136 98.4579151,17.46 C98.7810811,17.856 98.9247104,18.36 98.8528958,18.9 L98.8528958,19.476 C97.919305,19.476 97.0216216,19.584 96.1239382,19.8 C95.5135135,19.944 94.9030888,20.196 94.3644788,20.52 C93.9694981,20.736 93.646332,21.096 93.430888,21.492 C93.2513514,21.816 93.1436293,22.176 93.1436293,22.572 C93.1436293,22.968 93.215444,23.328 93.3590734,23.688 C93.5027027,24.012 93.6822394,24.264 93.9335907,24.516 C94.1849421,24.732 94.5081081,24.912 94.8312741,25.02 C95.1903475,25.128 95.5853282,25.2 95.9444015,25.2 C96.2675676,25.2 96.5907336,25.164 96.8779923,25.128 C97.165251,25.092 97.4166023,24.984 97.6679537,24.876 C97.919305,24.768 98.1706564,24.624 98.3861004,24.444 C98.6374517,24.264 98.8528958,24.084 99.1042471,23.868 L99.3196911,24.552 C99.3555985,24.732 99.4633205,24.84 99.6069498,24.948 C99.7505792,25.02 99.9301158,25.056 100.109653,25.056 L101.150965,24.984 L101.150965,24.984 Z M95.7289575,23.292 C95.3339768,22.932 95.2621622,22.32 95.5494208,21.852 C95.6930502,21.636 95.9084942,21.492 96.1239382,21.384 C96.4830116,21.24 96.8420849,21.132 97.2011583,21.06 C97.7756757,20.952 98.3142857,20.916 98.8888031,20.88 L98.8888031,22.5 C98.6015444,22.824 98.242471,23.076 97.8833977,23.292 C97.488417,23.472 97.0934363,23.544 96.6625483,23.544 C96.3393822,23.544 96.0162162,23.472 95.7289575,23.292 L95.7289575,23.292 Z M105.639382,24.984 L105.639382,17.964 C105.854826,17.712 106.142085,17.46 106.465251,17.28 C106.75251,17.1 107.075676,17.028 107.398842,17.028 C107.82973,16.992 108.22471,17.172 108.547876,17.46 C108.835135,17.856 108.978764,18.36 108.942857,18.864 L108.942857,24.984 L111.240927,24.984 L111.240927,18.864 C111.240927,18.612 111.276834,18.324 111.384556,18.072 C111.456371,17.856 111.6,17.676 111.743629,17.496 C111.887259,17.352 112.066795,17.208 112.282239,17.136 C112.497683,17.064 112.713127,17.028 112.928571,17.028 C113.359459,16.992 113.790347,17.172 114.113514,17.496 C114.400772,17.892 114.544402,18.396 114.508494,18.864 L114.508494,24.984 L116.806564,24.984 L116.806564,18.864 C116.806564,18.324 116.734749,17.82 116.59112,17.316 C116.44749,16.884 116.232046,16.488 115.944788,16.164 C115.657529,15.84 115.298456,15.588 114.903475,15.444 C114.43668,15.264 113.969884,15.192 113.503089,15.192 C113.179923,15.192 112.892664,15.228 112.605405,15.3 C112.318147,15.372 112.030888,15.48 111.743629,15.624 C111.456371,15.768 111.205019,15.948 110.989575,16.164 C110.774131,16.416 110.558687,16.668 110.415058,16.992 C110.235521,16.488 109.948263,16.02 109.553282,15.696 C109.122394,15.372 108.619691,15.192 108.081081,15.192 C107.82973,15.192 107.542471,15.228 107.29112,15.3 C107.039768,15.372 106.824324,15.444 106.60888,15.552 C106.393436,15.66 106.2139,15.804 106.034363,15.948 C105.854826,16.092 105.67529,16.272 105.495753,16.452 L105.352124,15.732 C105.280309,15.48 105.028958,15.3 104.777606,15.3 L103.37722,15.3 L103.37722,24.912 L105.639382,24.912 L105.639382,24.984 L105.639382,24.984 Z M118.74556,24.264 C118.817375,24.444 118.925097,24.588 119.032819,24.696 C119.176448,24.84 119.320077,24.912 119.463707,24.984 C119.643243,25.056 119.82278,25.092 120.038224,25.092 C120.397297,25.092 120.792278,24.948 121.043629,24.696 C121.582239,24.156 121.582239,23.256 121.043629,22.716 L121.043629,22.716 C120.9,22.572 120.756371,22.5 120.612741,22.428 C120.433205,22.356 120.253668,22.32 120.074131,22.32 C119.715058,22.32 119.320077,22.464 119.068726,22.716 C118.925097,22.86 118.853282,23.004 118.781467,23.148 C118.601931,23.508 118.601931,23.904 118.74556,24.264 L118.74556,24.264 Z M131.600386,12.708 C131.097683,12.24 130.523166,11.88 129.876834,11.664 C129.158687,11.412 128.440541,11.268 127.686486,11.304 C127.040154,11.304 126.393822,11.412 125.783398,11.628 C125.280695,11.808 124.8139,12.132 124.418919,12.492 C123.700772,13.212 123.269884,14.148 123.269884,15.192 C123.269884,15.732 123.341699,16.272 123.521236,16.74 C123.664865,17.136 123.916216,17.496 124.239382,17.784 C124.526641,18.072 124.885714,18.288 125.244788,18.468 C125.603861,18.648 125.998842,18.792 126.393822,18.9 C126.788803,19.008 127.147876,19.152 127.542857,19.26 C127.901931,19.368 128.225097,19.476 128.548263,19.656 C128.835521,19.8 129.050965,19.98 129.266409,20.232 C129.445946,20.484 129.553668,20.808 129.517761,21.096 C129.553668,21.636 129.338224,22.176 128.943243,22.572 C128.476448,22.932 127.866023,23.112 127.291506,23.076 C126.896525,23.076 126.465637,23.004 126.106564,22.896 C125.819305,22.788 125.496139,22.644 125.244788,22.464 C124.993436,22.32 124.777992,22.176 124.598456,22.032 C124.454826,21.924 124.27529,21.852 124.095753,21.852 C123.988031,21.852 123.880309,21.888 123.772587,21.924 C123.664865,21.996 123.59305,22.068 123.521236,22.14 L122.767181,23.364 C123.05444,23.652 123.341699,23.868 123.664865,24.084 C123.988031,24.3 124.383012,24.48 124.742085,24.66 C125.137066,24.804 125.532046,24.948 125.927027,25.02 C126.357915,25.092 126.752896,25.164 127.183784,25.128 C127.866023,25.128 128.548263,25.02 129.158687,24.804 C129.697297,24.588 130.2,24.264 130.630888,23.868 C131.025869,23.472 131.349035,23.004 131.528571,22.464 C131.744015,21.924 131.851737,21.348 131.851737,20.736 C131.851737,20.232 131.779923,19.764 131.600386,19.296 C131.420849,18.936 131.205405,18.576 130.882239,18.288 C130.594981,18 130.235907,17.784 129.876834,17.604 C129.517761,17.424 129.12278,17.28 128.727799,17.136 C128.332819,16.992 127.937838,16.884 127.578764,16.74 C127.219691,16.632 126.896525,16.488 126.573359,16.344 C126.322008,16.2 126.070656,16.02 125.855212,15.804 C125.675676,15.588 125.567954,15.3 125.603861,15.012 C125.603861,14.76 125.639768,14.544 125.74749,14.328 C125.819305,14.112 125.962934,13.932 126.142471,13.788 C126.322008,13.644 126.573359,13.5 126.788803,13.428 C127.076062,13.356 127.399228,13.284 127.686486,13.32 C128.009653,13.32 128.368726,13.356 128.691892,13.464 C128.943243,13.536 129.194595,13.644 129.445946,13.788 C129.66139,13.896 129.840927,14.004 129.984556,14.112 C130.092278,14.184 130.271815,14.256 130.415444,14.256 C130.523166,14.256 130.630888,14.22 130.73861,14.184 C130.846332,14.112 130.918147,14.004 130.989961,13.896 L131.600386,12.708 Z M135.765637,28.116 L135.765637,24.192 C136.052896,24.48 136.411969,24.732 136.771042,24.876 C137.201931,25.056 137.668726,25.128 138.135521,25.128 C138.710039,25.128 139.320463,25.02 139.823166,24.732 C140.325869,24.48 140.756757,24.12 141.11583,23.688 C141.474903,23.22 141.762162,22.68 141.941699,22.104 C142.121236,21.456 142.228958,20.772 142.228958,20.124 C142.228958,19.404 142.157143,18.72 141.977606,18.036 C141.833977,17.496 141.582625,16.956 141.259459,16.488 C140.972201,16.092 140.57722,15.768 140.146332,15.552 C139.715444,15.336 139.212741,15.228 138.710039,15.228 C138.099614,15.228 137.489189,15.372 136.950579,15.624 C136.447876,15.912 135.981081,16.272 135.622008,16.704 L135.442471,15.804 C135.370656,15.552 135.119305,15.372 134.867954,15.372 L133.467568,15.372 L133.467568,28.116 L135.765637,28.116 L135.765637,28.116 Z M138.781853,17.208 C139.033205,17.316 139.248649,17.496 139.392278,17.748 C139.571815,18.036 139.715444,18.36 139.787259,18.684 C139.894981,19.152 139.930888,19.62 139.930888,20.124 C139.930888,20.628 139.894981,21.096 139.787259,21.564 C139.715444,21.924 139.535907,22.284 139.320463,22.572 C139.140927,22.824 138.889575,23.04 138.602317,23.184 C138.315058,23.328 137.991892,23.4 137.668726,23.364 C137.309653,23.364 136.986486,23.292 136.66332,23.184 C136.340154,23.04 136.016988,22.788 135.801544,22.5 L135.801544,18.18 C136.052896,17.856 136.376062,17.532 136.735135,17.316 C137.094208,17.1 137.525097,16.992 137.955985,17.028 C138.243243,17.028 138.494595,17.064 138.781853,17.208 L138.781853,17.208 Z M151.385328,24.984 L151.385328,18.936 C151.385328,18.432 151.313514,17.928 151.133977,17.424 C150.990347,16.992 150.738996,16.596 150.451737,16.236 C150.128571,15.912 149.769498,15.624 149.33861,15.48 C148.871815,15.3 148.333205,15.192 147.830502,15.192 C146.358301,15.156 144.922008,15.696 143.844788,16.704 L144.239768,17.46 C144.311583,17.568 144.419305,17.676 144.527027,17.748 C144.634749,17.82 144.778378,17.892 144.922008,17.856 C145.101544,17.856 145.281081,17.82 145.42471,17.712 C145.56834,17.64 145.747876,17.532 145.927413,17.424 C146.142857,17.316 146.358301,17.208 146.573745,17.136 C146.861004,17.028 147.18417,16.992 147.507336,16.992 C147.938224,16.956 148.369112,17.136 148.692278,17.46 C149.015444,17.856 149.159073,18.36 149.087259,18.9 L149.087259,19.476 C148.153668,19.476 147.255985,19.584 146.358301,19.8 C145.747876,19.944 145.137452,20.196 144.598842,20.52 C144.203861,20.736 143.880695,21.096 143.665251,21.492 C143.485714,21.816 143.377992,22.176 143.377992,22.572 C143.377992,22.968 143.449807,23.328 143.593436,23.688 C143.737066,24.012 143.916602,24.264 144.167954,24.516 C144.419305,24.732 144.742471,24.912 145.065637,25.02 C145.42471,25.128 145.819691,25.2 146.178764,25.2 C146.501931,25.2 146.825097,25.164 147.112355,25.128 C147.399614,25.092 147.650965,24.984 147.902317,24.876 C148.153668,24.768 148.405019,24.624 148.620463,24.444 C148.871815,24.264 149.087259,24.084 149.33861,23.868 L149.554054,24.552 C149.589961,24.732 149.697683,24.84 149.841313,24.948 C149.984942,25.02 150.164479,25.056 150.344015,25.056 L151.385328,24.984 L151.385328,24.984 Z M145.96332,23.292 C145.56834,22.932 145.496525,22.32 145.783784,21.852 C145.927413,21.636 146.142857,21.492 146.358301,21.384 C146.717375,21.24 147.076448,21.132 147.435521,21.06 C148.010039,20.952 148.548649,20.916 149.123166,20.88 L149.123166,22.5 C148.835907,22.824 148.476834,23.076 148.117761,23.292 C147.72278,23.472 147.327799,23.544 146.896911,23.544 C146.573745,23.544 146.250579,23.472 145.96332,23.292 L145.96332,23.292 Z M161.008494,16.56 C160.577606,16.128 160.110811,15.804 159.572201,15.552 C158.961776,15.3 158.351351,15.192 157.705019,15.192 C157.02278,15.192 156.340541,15.3 155.694208,15.552 C155.155598,15.768 154.652896,16.128 154.222008,16.596 C153.827027,17.064 153.503861,17.568 153.324324,18.144 C153.10888,18.792 153.001158,19.44 153.037066,20.088 C153.037066,20.808 153.144788,21.528 153.360232,22.176 C153.575676,22.752 153.862934,23.292 154.293822,23.724 C154.688803,24.156 155.155598,24.48 155.658301,24.696 C156.196911,24.912 156.771429,25.02 157.345946,25.02 C157.669112,25.02 158.028185,24.984 158.351351,24.948 C158.674517,24.912 159.033591,24.804 159.356757,24.696 C159.679923,24.588 160.003089,24.408 160.290347,24.192 C160.613514,23.976 160.864865,23.724 161.116216,23.436 L160.469884,22.608 C160.362162,22.464 160.218533,22.392 160.038996,22.392 C159.895367,22.392 159.751737,22.428 159.644015,22.536 C159.536293,22.644 159.392664,22.716 159.249035,22.824 C159.069498,22.932 158.889961,23.04 158.674517,23.112 C158.387259,23.22 158.1,23.256 157.776834,23.256 C157.417761,23.256 157.094595,23.184 156.771429,23.04 C156.48417,22.896 156.232819,22.68 156.017375,22.428 C155.801931,22.14 155.622394,21.78 155.550579,21.42 C155.442857,20.988 155.371042,20.52 155.371042,20.052 C155.371042,19.62 155.40695,19.152 155.514672,18.72 C155.586486,18.36 155.766023,18.036 155.981467,17.712 C156.196911,17.424 156.448263,17.208 156.735521,17.064 C157.058687,16.92 157.417761,16.848 157.812741,16.848 C158.1,16.848 158.351351,16.884 158.602703,16.956 C158.782239,17.028 158.997683,17.1 159.141313,17.208 C159.284942,17.316 159.428571,17.388 159.536293,17.46 C159.644015,17.532 159.751737,17.568 159.895367,17.568 C160.003089,17.568 160.110811,17.568 160.182625,17.496 C160.25444,17.424 160.326255,17.352 160.398069,17.28 L161.008494,16.56 Z M164.527413,15.588 C163.988803,15.84 163.4861,16.164 163.09112,16.596 C162.696139,17.028 162.372973,17.532 162.193436,18.108 C161.977992,18.684 161.87027,19.332 161.87027,19.944 C161.87027,20.7 161.977992,21.456 162.229344,22.176 C162.444788,22.788 162.803861,23.328 163.234749,23.796 C163.665637,24.228 164.16834,24.552 164.742857,24.768 C165.353282,24.984 165.963707,25.092 166.610039,25.092 C166.969112,25.092 167.292278,25.056 167.651351,25.02 C168.010425,24.984 168.369498,24.876 168.692664,24.768 C169.051737,24.66 169.374903,24.48 169.698069,24.264 C170.021236,24.048 170.308494,23.796 170.559846,23.508 L169.913514,22.68 C169.805792,22.536 169.662162,22.464 169.482625,22.464 C169.338996,22.464 169.159459,22.5 169.051737,22.608 C168.908108,22.68 168.728571,22.788 168.513127,22.896 C168.297683,23.004 168.046332,23.112 167.794981,23.184 C167.471815,23.292 167.148649,23.328 166.825483,23.328 C166.466409,23.328 166.143243,23.256 165.820077,23.148 C165.532819,23.04 165.24556,22.86 165.030116,22.608 C164.778764,22.356 164.599228,22.032 164.491506,21.708 C164.347876,21.312 164.240154,20.88 164.240154,20.412 L170.164865,20.412 C170.344402,20.448 170.488031,20.376 170.595753,20.232 C170.703475,20.016 170.739382,19.764 170.703475,19.512 C170.703475,18.864 170.595753,18.252 170.380309,17.676 C170.200772,17.172 169.913514,16.704 169.518533,16.308 C169.159459,15.948 168.692664,15.66 168.189961,15.444 C167.651351,15.264 167.076834,15.156 166.502317,15.156 C165.820077,15.228 165.137838,15.336 164.527413,15.588 L164.527413,15.588 Z M167.4,17.064 C167.651351,17.172 167.866795,17.316 168.046332,17.532 C168.225869,17.748 168.333591,17.964 168.441313,18.216 C168.513127,18.504 168.584942,18.792 168.549035,19.08 L164.204247,19.08 C164.276062,18.468 164.527413,17.892 164.922394,17.46 C165.353282,17.064 165.927799,16.848 166.502317,16.884 C166.825483,16.884 167.112741,16.956 167.4,17.064 L167.4,17.064 Z" id="Shape" fill="#282828"></path>
                <path d="M2.87258687,0 L33.034749,0 C34.6146718,0 35.9073359,1.296 35.9073359,2.88 L35.9073359,33.12 C35.9073359,34.704 34.6146718,36 33.034749,36 L2.87258687,36 C1.29266409,36 0,34.704 0,33.12 L0,2.88 C0,1.296 1.29266409,0 2.87258687,0 Z" id="Shape" fill="#9C28AD"></path>
                <path d="M26.8945946,14.868 C26.4637066,13.752 25.8173745,12.744 24.9555985,11.916 C24.0938224,11.088 23.088417,10.404 21.9752896,9.972 C20.7544402,9.504 19.4258687,9.252 18.0972973,9.288 L10.9876448,9.288 L10.9876448,28.044 L18.0972973,28.044 C19.4258687,28.044 20.7544402,27.828 21.9752896,27.36 C24.2374517,26.496 26.0328185,24.732 26.8945946,22.464 C27.8281853,20.016 27.8281853,17.316 26.8945946,14.868 L26.8945946,14.868 Z M23.627027,21.42 C23.3756757,22.176 22.980695,22.896 22.4420849,23.508 C21.9393822,24.084 21.2930502,24.516 20.5749035,24.804 C19.7849421,25.128 18.9590734,25.272 18.0972973,25.272 L14.4706564,25.272 L14.4706564,12.06 L18.0972973,12.06 C18.923166,12.06 19.7849421,12.204 20.5749035,12.528 C21.2930502,12.816 21.9034749,13.248 22.4420849,13.824 C22.980695,14.436 23.3756757,15.12 23.627027,15.912 C23.9142857,16.812 24.0579151,17.748 24.0220077,18.684 C24.0579151,19.584 23.9142857,20.52 23.627027,21.42 L23.627027,21.42 Z" id="Shape" fill="#FFFFFF"></path>
            </g>
            <path d="M182.585931,15.33744 L181.902255,15.33744 L181.902255,10.88208 L180.070981,15.33744 L179.875645,15.33744 L178.044371,10.88208 L178.044371,15.33744 L177.360695,15.33744 L177.360695,9.95184 L178.410625,9.95184 L179.973313,13.86864 L181.536,9.95184 L182.585931,9.95184 L182.585931,15.33744 Z M176.481683,10.58832 L174.96783,10.58832 L174.96783,15.33744 L174.284154,15.33744 L174.284154,10.58832 L172.770301,10.58832 L172.770301,9.95184 L176.481683,9.95184 L176.481683,10.58832 Z" id="™" fill="#282828"></path>
        </g>
    </g>
</svg>