<svg xmlns="http://www.w3.org/2000/svg" width="154" height="52" viewBox="0 0 154 52">
    <g fill="none" fill-rule="evenodd" opacity=".369">
        <path fill="#FFF" fill-rule="nonzero" d="M0 0h154v52H0z"/>
        <g fill="#282828">
            <path d="M83.84 24.942s-1.435-.887-2.322-1.23c0 0-2.745-1.272-3.291-1.877 0 0-1.068-1.009-.443-2.18 0 0 .263-.765 1.393-.765 0 0 1.471.08 1.471 1.29v1.707h5.277l-.01-2.513s.405-4.117-6.214-4.298c0 0-5.205-.343-6.699 2.462 0 0-.586.625-.586 2.804v1.573s-.06 1.817.868 2.987c0 0 .525.767 1.817 1.613 0 0 2.623 1.413 4.197 2.221 0 0 1.589.907 1.379 2.351 0 0-.128 1.48-1.663 1.421 0 0-1.403-.065-1.403-1.517v-1.704h-5.622v2.477s-.158 4.738 7.067 4.738c0 0 6.9.14 7.223-4.864v-2.016s.243-3.065-2.44-4.68M56.832 15.665l-1.766 11.07h-.413l-1.687-10.97h-8.813l-.44 20.044h5.217l.062-15.103h.41l2.766 15.101h5.489l2.731-15.095h.364l.126 15.097h5.245l-.565-20.144zM25.775 15.749l-3.47 20.038h5.616l2.055-15.537h.462l2.056 15.537h5.616L34.64 15.75zM143.63 24.666v2.956h1.439v3.174c0 1.55-1.325 1.58-1.325 1.58-1.613 0-1.552-1.475-1.552-1.475V19.926c0-1.131 1.43-1.192 1.43-1.192 1.374 0 1.384 1.349 1.384 1.349v1.669h5.288c.173-3.257-.476-4.045-.476-4.045-1.312-2.947-6.274-2.785-6.274-2.785-7.627 0-6.78 5.851-6.78 5.851v10.612c.163 5.488 7.677 4.93 7.804 4.923 3.344-.37 4.353-1.43 4.353-1.43a3.25 3.25 0 0 0 1.168-1.645c.266-.558.332-2.332.332-2.332v-6.235h-6.792zM126.1 27.928h-.23l-5.368-12.258h-6.418v20.142h5.224l-.313-12.255h.233l5.56 12.255h6.227V15.67h-5.29zM101.326 30.794s.077 1.653-1.455 1.653c0 0-1.614.086-1.614-1.612l-.016-15.152H92.51v15.032s-.589 5.689 7.44 5.689c0 0 6.978.082 6.978-5.429V15.683h-5.602v15.11zM14.848 24.942s-1.432-.887-2.32-1.23c0 0-2.744-1.27-3.288-1.877 0 0-1.07-1.01-.444-2.179 0 0 .262-.766 1.391-.766 0 0 1.473.08 1.473 1.29v1.707h5.277l-.01-2.515s.403-4.116-6.214-4.296c0 0-.498-.032-1.23.004 0 0-4.008.216-5.441 2.414-.009.016-.02.029-.028.044 0 0-.586.624-.586 2.804v1.574s-.06 1.815.869 2.985c0 0 .524.769 1.816 1.614 0 0 2.62 1.413 4.195 2.22 0 0 1.59.907 1.38 2.352 0 0-.128 1.48-1.662 1.42 0 0-1.404-.063-1.404-1.515v-1.708H3v2.48s-.157 4.739 7.066 4.739c0 0 6.9.14 7.225-4.864v-2.017s.24-3.066-2.443-4.68"/>
        </g>
    </g>
</svg>
