<svg xmlns="http://www.w3.org/2000/svg" xmlns:xlink="http://www.w3.org/1999/xlink" width="106" height="52" viewBox="0 0 106 52">
    <defs>
        <path id="a" d="M0 0h106v52H0z"/>
    </defs>
    <g fill="none" fill-rule="evenodd" opacity=".369">
        <mask id="b" fill="#fff">
            <use xlink:href="#a"/>
        </mask>
        <use fill="#FFF" fill-rule="nonzero" xlink:href="#a"/>
        <g fill="#282828" mask="url(#b)">
            <path d="M59.281 1.022c.032.015.063.034.096.045.306.104.569.266.754.54.339.505.686 1.005 1.018 1.513.096.146.173.311.22.478a.842.842 0 0 1 .02.429c-.055.201-.14.403-.252.58-.516.808-1.05 1.606-1.571 2.41-.665 1.027-1.324 2.057-1.988 3.084-.445.688-.895 1.373-1.34 2.062-.267.412-.525.83-.792 1.24-.315.486-.638.967-.952 1.452-.453.701-.9 1.405-1.353 2.106-.226.35-.46.696-.687 1.046-.387.596-.77 1.195-1.156 1.791-.555.854-1.114 1.705-1.668 2.56-.542.835-1.078 1.675-1.618 2.512-.23.357-.465.711-.696 1.067-.344.528-.686 1.057-1.029 1.586l-.932 1.438c-.453.702-.903 1.406-1.358 2.106-.463.712-.93 1.421-1.397 2.131-.234.357-.577.525-.993.56-.044.005-.088.003-.132.003-.608 0-1.217-.006-1.825.003a1.3 1.3 0 0 1-.803-.255 1.39 1.39 0 0 1-.543-.898c-.046-.249.052-.476.184-.685.27-.427.542-.853.815-1.279.43-.672.858-1.346 1.293-2.015.435-.67.879-1.334 1.315-2.003.276-.423.543-.853.818-1.277.312-.479.63-.953.941-1.432.252-.386.498-.777.748-1.165.388-.603.778-1.206 1.168-1.809.796-1.23 1.59-2.46 2.387-3.69.28-.43.574-.85.85-1.28.44-.684.869-1.375 1.307-2.06.272-.425.556-.843.831-1.267.32-.491.633-.986.953-1.477.44-.675.885-1.345 1.323-2.021.435-.67.862-1.344 1.295-2.015.302-.468.612-.93.913-1.399.305-.474.601-.954.906-1.428.258-.4.522-.795.783-1.193l.673-1.03c.105-.16.208-.32.317-.475.207-.292.476-.494.837-.558.02-.003.038-.02.056-.031h.264zM99.581 42.51c-.057.144-.17.178-.315.177-.755-.008-1.51-.009-2.265-.015-.102-.001-.204-.013-.305-.028-.216-.033-.283.022-.283.24l-.001 1.186c0 .173.045.225.217.228.315.005.63.01.945.005.483-.006.967-.019 1.45-.03.156-.004.205.029.208.182.006.337.008.674.004 1.011-.002.165-.055.207-.215.206-.616-.004-1.231-.006-1.847-.013a6.61 6.61 0 0 1-.503-.03c-.183-.017-.252.03-.255.21-.006.41-.005.82-.002 1.23.001.154.05.191.228.19.85 0 1.7-.002 2.55-.006.35-.002.37.02.357.374-.009.234 0 .469 0 .703 0 .059.007.118.005.176-.006.17-.038.207-.208.209-.168.002-.337-.009-.505-.01h-3.234c-.16.001-.322.013-.483.01-.203-.006-.256-.073-.247-.276.012-.256.026-.512.026-.767.002-1.914.002-3.828 0-5.741 0-.146-.021-.292-.022-.438 0-.236.05-.287.283-.286 1.12.003 2.242.009 3.363.011.249 0 .497-.01.746-.015.234-.004.272.026.276.258.003.22-.01.44-.007.66 0 .085.025.17.04.256v.132zM62.914 33.761H47.517c-.48 0-.836-.213-1.094-.614-.134-.208-.23-.422-.22-.676a1.04 1.04 0 0 1 .154-.52c.256-.41.51-.822.767-1.232.55-.874 1.1-1.747 1.652-2.62.41-.65.824-1.298 1.23-1.95.427-.685.842-1.375 1.27-2.058.271-.435.56-.858.834-1.292.292-.464.573-.937.863-1.403.291-.465.59-.925.882-1.39.436-.695.866-1.394 1.302-2.089.265-.421.538-.838.803-1.26.344-.545.682-1.093 1.024-1.64.19-.304.38-.609.571-.911.472-.742.947-1.48 1.416-2.225.39-.62.77-1.245 1.158-1.866.335-.534.673-1.065 1.013-1.596.229-.357.461-.713.695-1.067.387-.585 1.395-.596 1.799-.056.197.264.372.544.552.82a685.084 685.084 0 0 1 2.595 4.026c.278.439.545.885.827 1.322.443.69.897 1.373 1.342 2.062.298.462.588.928.884 1.39.623.976 1.248 1.95 1.871 2.925.335.524.667 1.05 1.004 1.574.428.665.862 1.326 1.29 1.99.398.617.79 1.235 1.186 1.852.431.671.865 1.342 1.296 2.014.434.679.863 1.361 1.3 2.039.455.708.923 1.408 1.375 2.119.168.264.356.519.425.838.045.21.026.41-.04.605a1.377 1.377 0 0 1-1.254.896c-5.125-.011-10.25-.007-15.375-.007M31.587 33.433c-.763 0-1.525-.003-2.288.001a1.081 1.081 0 0 1-.604-.17c-.303-.195-.536-.455-.652-.802-.118-.353-.043-.677.154-.984.301-.468.598-.938.894-1.409.21-.334.414-.673.625-1.007a962.97 962.97 0 0 1 1.581-2.509c.318-.501.643-.998.957-1.501.299-.478.583-.965.883-1.443.303-.484.62-.959.926-1.44.27-.428.53-.86.8-1.289.44-.7.886-1.397 1.326-2.098.293-.465.578-.935.87-1.4.293-.464.591-.925.885-1.389.208-.327.414-.657.618-.986.286-.46.568-.923.856-1.382.315-.503.635-1.002.951-1.504.671-1.066 1.34-2.133 2.012-3.198.422-.67.848-1.336 1.268-2.006.296-.471.582-.949.877-1.42.237-.379.475-.757.724-1.127.194-.289.459-.505.805-.572.455-.087.813.119 1.105.448.111.125.2.27.29.413.206.329.405.662.609.992.073.119.152.233.226.35.464.73.928 1.46 1.39 2.19.089.142.17.29.248.44.194.372.184.746-.011 1.115a3.6 3.6 0 0 1-.177.303c-.274.416-.554.827-.827 1.244-.112.171-.204.356-.315.528-.67 1.031-1.347 2.059-2.015 3.091-.442.682-.872 1.372-1.312 2.054-.477.739-.961 1.472-1.44 2.21-.35.54-.694 1.085-1.043 1.627-.448.696-.899 1.39-1.347 2.085-.437.677-.87 1.356-1.31 2.032-.458.707-.922 1.41-1.38 2.117-.358.553-.709 1.11-1.066 1.665-.448.695-.9 1.388-1.348 2.084-.423.659-.833 1.327-1.267 1.979-.273.408-.649.67-1.169.669-.77-.003-1.54 0-2.31 0v-.001zM37.771 43.659c0 .095-.003.173.001.25.01.183.034.365.035.547.005 1.335.005 2.67.007 4.003 0 .2-.044.255-.238.257-.352.004-.704.004-1.055 0-.21-.002-.247-.047-.247-.269l.002-6.576c0-.14-.003-.28 0-.418.005-.211.037-.247.244-.246.314 0 .629.01.943.012.11.001.22-.007.328-.018.176-.017.31.034.406.195.315.529.635 1.054.958 1.578.265.43.538.855.804 1.286.292.473.581.949.868 1.425.074.123.069.126.214.183.015-.046.045-.092.041-.135-.101-.987.008-1.976-.028-2.964-.015-.417-.015-.835-.024-1.252-.006-.237.072-.315.312-.314.33.002.659 0 .988-.003.161-.002.193.018.217.175.01.065.009.132.009.198l.003 6.906c0 .215-.024.24-.24.24-.366-.001-.733-.007-1.099-.002-.134.002-.217-.051-.285-.163a90.967 90.967 0 0 0-.751-1.215c-.304-.483-.613-.964-.918-1.446-.16-.254-.315-.511-.477-.764-.193-.302-.394-.6-.586-.903-.07-.111-.124-.232-.188-.348-.048-.088-.083-.19-.244-.219M89.338 47.275v-.01c.176 0 .352.004.527-.001.718-.02 1.472-.538 1.703-1.304a3.256 3.256 0 0 0 .002-1.945c-.204-.657-.64-1.086-1.307-1.266a2.78 2.78 0 0 0-.56-.094 17.08 17.08 0 0 0-1.01-.02c-.153 0-.19.048-.187.205.001.124.014.248.014.372 0 1.003 0 2.006-.003 3.009 0 .262 0 .525-.014.787-.01.205.032.264.243.267.197.002.395 0 .592 0M87 44.964v-2.882c0-.205-.014-.41-.013-.615.001-.22.044-.263.255-.261.879.006 1.76-.01 2.637.032a3.57 3.57 0 0 1 1.946.667c.69.496 1.088 1.164 1.3 1.973.093.358.152.72.152 1.084.001.515-.089 1.02-.27 1.506-.11.296-.252.573-.44.832a3.123 3.123 0 0 1-1.22 1.01 4.287 4.287 0 0 1-1.098.368 1.82 1.82 0 0 1-.306.024c-.725.003-1.451.002-2.177.003-.19.001-.381.013-.571.009-.167-.004-.223-.07-.22-.232l.038-3.518H87M16.125 44.948h-.004v2.11c0 .156.045.209.211.213.257.008.513.009.77.005.19-.002.383.003.57-.027 1.074-.173 1.589-1.078 1.652-1.783.026-.29.011-.585.007-.877-.008-.517-.235-.95-.564-1.327a1.753 1.753 0 0 0-.747-.487c-.554-.197-1.133-.106-1.7-.138-.151-.009-.195.053-.195.2v2.111m.171 3.768H14.89c-.246-.005-.29-.053-.276-.306.007-.124.017-.249.017-.373v-6.224c0-.132-.013-.264-.009-.395.006-.168.05-.213.212-.212.916.006 1.832-.003 2.747.033a3.446 3.446 0 0 1 1.568.462c.62.352 1.08.86 1.38 1.518.431.948.484 1.928.222 2.916-.225.849-.7 1.557-1.466 2.012-.554.33-1.151.576-1.822.559-.389-.01-.777-.002-1.166-.002v.012M61.358 42.546l-.001.01h-.505c-.18 0-.236.06-.229.236.007.175.015.35.016.526 0 .321-.005.643-.008.965-.002.175.056.246.205.244.38-.007.76-.024 1.14-.022.31.002.73-.257.812-.708.019-.106.016-.219.013-.328a.911.911 0 0 0-.766-.885c-.223-.034-.451-.027-.677-.038m-2.24-1.31c.098-.012.183-.03.268-.03.461 0 .922.004 1.383.008.454.005.91-.01 1.362.022.668.046 1.255.293 1.683.829.14.174.247.381.337.588.42.962.112 2.024-.629 2.623-.145.118-.322.2-.492.285-.208.104-.22.126-.115.329.34.656.679 1.313 1.02 1.969.108.206.227.408.332.616.03.06.057.144.037.2-.032.089-.133.07-.213.067l-1.007-.03c-.08-.001-.162.006-.242-.003a.263.263 0 0 1-.217-.162c-.24-.5-.486-1-.731-1.498-.165-.334-.332-.667-.499-1-.016-.033-.03-.068-.054-.094-.074-.085-.569-.13-.648-.049a.302.302 0 0 0-.069.195c.003.798.013 1.596.018 2.394 0 .185-.033.22-.217.221-.367.003-.733.004-1.099 0-.191-.003-.237-.055-.237-.235.005-1.656.011-3.312.014-4.968.001-.66-.005-1.32-.006-1.979 0-.094.013-.187.02-.299M78.387 43.07c-.064.135-.11.214-.14.3-.042.124-.061.256-.106.38-.197.534-.4 1.067-.599 1.6-.075.202-.04.253.168.256.037.001.073-.005.11-.004.423.008.847.013 1.27.026.165.005.233-.067.182-.229-.038-.117-.1-.228-.14-.344-.208-.586-.412-1.172-.62-1.757-.023-.063-.064-.119-.125-.228m-.107-1.867h.723c.21 0 .25.027.325.222.174.45.352.9.523 1.352.202.533.398 1.069.597 1.603.201.542.404 1.082.603 1.625.219.597.43 1.197.653 1.792.077.205.18.4.272.599.012.026.03.05.041.077.072.17.002.27-.185.265-.088-.003-.175-.021-.262-.022a45.136 45.136 0 0 0-.835.002c-.245.002-.306-.043-.384-.273-.132-.388-.267-.775-.402-1.162-.022-.062-.042-.132-.086-.176-.047-.047-.12-.095-.183-.095-.806.001-1.611.013-2.417.016-.308.001-.341.027-.434.316-.103.32-.224.634-.336.951-.029.083-.065.165-.08.25-.024.126-.1.17-.217.17-.41.005-.82.013-1.23.014-.128 0-.18-.079-.152-.208a.332.332 0 0 1 .03-.082c.277-.527.448-1.096.663-1.648.31-.79.587-1.592.888-2.386.235-.623.487-1.24.725-1.861.097-.252.173-.513.263-.768.048-.138.11-.271.16-.409.043-.123.13-.168.254-.162l.483.024v-.026M9.592 43.052c-.15.41-.29.785-.427 1.162-.136.378-.268.758-.402 1.136-.01.028-.024.055-.03.083-.026.132.027.197.163.192.116-.005.232-.022.348-.022.359 0 .717.007 1.076.007.176 0 .22-.054.169-.212a34.225 34.225 0 0 0-.7-1.96c-.048-.126-.071-.266-.197-.386M6 48.608c.01-.029.015-.066.033-.096.33-.544.468-1.166.703-1.749.255-.63.491-1.269.73-1.906.167-.445.321-.895.488-1.34.19-.508.388-1.012.58-1.518.067-.178.131-.357.192-.538.07-.211.125-.256.347-.256.168 0 .336.009.504.009.22 0 .44 0 .659-.01.172-.008.279.062.334.222.087.249.173.498.264.745.11.295.225.587.335.881.08.213.152.428.232.64l.961 2.547c.204.541.413 1.08.612 1.624.076.205.139.411.25.604.1.173.008.283-.185.275-.336-.013-.672-.019-1.009-.027-.066-.002-.132 0-.198 0a.216.216 0 0 1-.214-.158l-.136-.395c-.105-.296-.205-.594-.32-.886-.1-.254-.138-.259-.41-.25-.366.011-.733.007-1.1.004a98.617 98.617 0 0 1-1.295-.021.225.225 0 0 0-.226.142c-.063.14-.122.283-.173.427-.11.31-.208.625-.319.935-.066.185-.1.204-.289.204-.366.002-.732 0-1.099 0-.096 0-.193.006-.251-.11M51.436 43.85v-2.33c0-.286.046-.325.333-.316.262.009.526.014.788.001.342-.016.386.016.385.357 0 1.4-.003 2.799 0 4.199 0 .203.025.408.044.611.044.46.416.918.956.964.228.02.45.026.677.006.533-.046.933-.596.955-.98.014-.234.038-.467.039-.701.003-1.165.002-2.33 0-3.496 0-.226-.02-.452-.02-.679-.002-.244.045-.285.278-.284.322.002.643.003.965.002.23-.001.282.044.289.281.004.154-.004.308-.004.461 0 1.32-.004 2.638.001 3.957.002.53-.09 1.026-.344 1.5-.13.243-.267.481-.462.661-.32.296-.674.545-1.114.667a3.38 3.38 0 0 1-.862.138c-.555.007-1.094-.089-1.577-.388-.499-.309-.887-.717-1.097-1.274a3.758 3.758 0 0 1-.224-1.334V43.85h-.006zM29.809 44.972V41.98c-.001-.153-.012-.307-.013-.46 0-.268.055-.32.327-.314.175.004.35.007.526.008 1.04.004 2.081.008 3.122.009.14 0 .278-.017.417-.021.23-.007.285.044.29.28.005.19-.002.38 0 .571 0 .102.005.205.014.307.021.227-.066.327-.297.327-.183-.001-.366-.011-.55-.012-.513-.002-1.026.001-1.539-.003a6.26 6.26 0 0 1-.524-.034c-.205-.019-.264.031-.265.243-.001.387 0 .775-.002 1.163-.001.202.042.25.237.255.198.003.396.005.594.005.462 0 .923.003 1.385 0 .124-.001.248-.02.372-.027.186-.011.25.038.252.216.006.315.006.63 0 .946-.002.184-.053.23-.243.228-.557-.005-1.114-.012-1.67-.021-.233-.004-.466-.014-.7-.021-.165-.005-.221.052-.224.247-.004.241 0 .482 0 .724 0 .138-.002.277-.004.416-.002.2.043.248.242.248.432 0 .865 0 1.297-.003.447-.003.895-.008 1.342-.01.233-.002.283.047.284.282l.004.901c0 .251-.038.289-.297.288l-3.65-.012c-.154 0-.308.012-.462.01-.231-.004-.28-.06-.28-.292v-3.452h.015M68.339 48.717h-2.022c-.044 0-.089.002-.132-.004-.153-.022-.212-.1-.211-.254.01-1.377.02-2.754.026-4.131.004-.711.003-1.422 0-2.133 0-.22-.022-.438-.021-.658 0-.304.072-.332.31-.331l3.537.008c.183 0 .366-.009.549-.011.232-.003.291.052.296.277.006.315.01.63.012.945 0 .161-.073.244-.24.255-.13.008-.263-.006-.395-.007-.571 0-1.143.003-1.714-.001a7.322 7.322 0 0 1-.568-.034c-.197-.017-.258.029-.26.223-.003.403-.003.806-.002 1.21 0 .176.04.22.218.227.175.007.35.006.526.006.499 0 .997.002 1.495 0 .11-.001.22-.018.329-.027.21-.016.271.035.275.237.006.3.01.6.012.9 0 .185-.066.255-.252.252-.395-.005-.79-.02-1.186-.023-.24-.002-.482.016-.724.016a3.72 3.72 0 0 1-.414-.028c-.21-.023-.275.024-.277.23-.004.395-.003.79-.001 1.186 0 .174.044.213.228.213.843-.001 1.685-.001 2.528-.007.398-.003.412.006.41.398l.002.77c0 .256-.037.296-.29.296-.681.001-1.363 0-2.044 0M21.579 41.277c.073-.106.163-.08.25-.079.336.005.672.006 1.008.008.037 0 .074-.004.11-.003.18.008.231.044.29.211l.401 1.162c.252.734.5 1.47.755 2.202.138.4.29.797.429 1.197.045.131.059.272.098.405.015.048.056.112.097.123.079.021.116-.05.13-.117.136-.618.435-1.179.613-1.783.21-.709.478-1.4.718-2.098.12-.353.237-.707.35-1.063.06-.182.133-.241.34-.239.168.002.336.013.504.011.175-.002.35-.01.525-.023.188-.014.226.017.21.203a.705.705 0 0 1-.044.191c-.153.396-.318.787-.462 1.186-.298.825-.583 1.655-.88 2.481-.172.482-.358.959-.532 1.44-.204.564-.401 1.13-.602 1.695-.02.055-.043.11-.06.165-.036.114-.114.165-.23.165h-1.165c-.142 0-.206-.082-.246-.207a30.712 30.712 0 0 0-.34-.996c-.264-.73-.538-1.455-.804-2.184-.304-.832-.603-1.665-.906-2.497-.153-.42-.31-.837-.463-1.256-.037-.102-.065-.208-.094-.3M46.258 45.679v-2.75c0-.26-.051-.3-.318-.258a1.718 1.718 0 0 1-.262.017c-.462.002-.924.002-1.386.002-.044 0-.088.002-.131-.003-.153-.02-.233-.116-.228-.27.008-.306.018-.614.024-.92.005-.248.047-.292.298-.291 1.239.002 2.477.007 3.716.007.622 0 1.245-.01 1.867-.015.15-.002.197.035.215.186.009.08.004.161.005.242.006.256.007.512.018.768.01.235-.054.306-.286.299l-.066-.002-1.737-.018c-.2-.001-.235.034-.234.226l.011 3.144c.002.557-.002 1.115.002 1.672.001.241.014.482.026.724.01.21-.05.279-.263.28-.337 0-.673 0-1.01-.003-.233-.002-.274-.046-.274-.266v-2.771h.013zM84.945 44.991v3.452c0 .229-.043.274-.265.275-.345 0-.69 0-1.033-.002-.208-.002-.25-.055-.233-.269.01-.146.019-.292.02-.439v-6.004c0-.198-.012-.396-.01-.594.002-.176.035-.204.207-.206.35-.002.702-.004 1.053-.004.183 0 .251.062.256.251.006.234-.001.469-.001.703v2.837h.006"/>
        </g>
    </g>
</svg>
